#Comment line ignore any data following # character 
#Hierarchical Translation and Rotation (.htr) file 
[Header]	
#Header keywords are followed by a single value 
FileType HTR		#Single word string
DataType HTRS		#Translation followed by rotation and scale data
FileVersion 1		#integer
NumSegments 84		#integer
NumFrames 2		#integer
DataFrameRate 30		#integer, data frame rate in this file
EulerRotationOrder ZYX
CalibrationUnits mm
RotationUnits Degrees
GlobalAxisofGravity Y
BoneLengthAxis Y
ScaleFactor 1.00
[SegmentNames&Hierarchy]
#CHILD	PARENT
MASTER GLOBAL
root MASTER
chest root
L_mid_tent01 root
R_mid_tent01 root
spine01 root
Bip01_Neck chest
L_humerus chest
R_humerus chest
weapon_bone chest
Bip01_Head Bip01_Neck
eye_left_bone Bip01_Head
eye_right_bone Bip01_Head
L_forearm L_humerus
L_front_hand L_forearm
L_weapon_bone L_forearm
L_front_hand01_01 L_front_hand
L_front_hand02_01 L_front_hand
L_front_hand03_01 L_front_hand
L_front_hand01_02 L_front_hand01_01
L_front_hand02_02 L_front_hand02_01
L_front_hand03_02 L_front_hand03_01
R_forearm R_humerus
R_front_hand R_forearm
R_weapon_bone R_forearm
R_front_hand01_01 R_front_hand
R_front_hand02_01 R_front_hand
R_front_hand03_01 R_front_hand
R_front_hand01_02 R_front_hand01_01
R_front_hand02_02 R_front_hand02_01
R_front_hand03_02 R_front_hand03_01
null_rope01_connect L_mid_tent01
Rope1_Seg01 null_rope01_connect
Rope1_Seg02 Rope1_Seg01
Rope1_Seg03 Rope1_Seg02
Rope1_Seg04 Rope1_Seg03
Rope1_Seg05 Rope1_Seg04
Rope1_Seg06 Rope1_Seg05
Rope1_Seg07 Rope1_Seg06
Rope1_Seg09 Rope1_Seg07
L_mid_hand01 Rope1_Seg09
L_mid_hand02 Rope1_Seg09
L_mid_hand03 Rope1_Seg09
null_rope02_connect R_mid_tent01
Rope2_Seg01 null_rope02_connect
Rope2_Seg02 Rope2_Seg01
Rope2_Seg03 Rope2_Seg02
Rope2_Seg04 Rope2_Seg03
Rope2_Seg05 Rope2_Seg04
Rope2_Seg06 Rope2_Seg05
Rope2_Seg07 Rope2_Seg06
Rope2_Seg09 Rope2_Seg07
R_mid_hand01 Rope2_Seg09
R_mid_hand02 Rope2_Seg09
R_mid_hand03 Rope2_Seg09
spine02 spine01
spine03 spine02
pelvis spine03
null_rope03_connect pelvis
null_rope04_connect pelvis
Rope3_Seg01 null_rope03_connect
Rope3_Seg02 Rope3_Seg01
Rope3_Seg03 Rope3_Seg02
Rope3_Seg04 Rope3_Seg03
Rope3_Seg05 Rope3_Seg04
Rope3_Seg06 Rope3_Seg05
Rope3_Seg07 Rope3_Seg06
Rope3_Seg08 Rope3_Seg07
Rope3_Seg09 Rope3_Seg08
R_rear_hand01 Rope3_Seg09
R_rear_hand02 Rope3_Seg09
R_rear_hand03 Rope3_Seg09
Rope4_Seg01 null_rope04_connect
Rope4_Seg02 Rope4_Seg01
Rope4_Seg03 Rope4_Seg02
Rope4_Seg04 Rope4_Seg03
Rope4_Seg05 Rope4_Seg04
Rope4_Seg06 Rope4_Seg05
Rope4_Seg07 Rope4_Seg06
Rope4_Seg08 Rope4_Seg07
Rope4_Seg09 Rope4_Seg08
L_rear_hand01 Rope4_Seg09
L_rear_hand02 Rope4_Seg09
L_rear_hand03 Rope4_Seg09
[BasePosition]
#SegmentName Tx, Ty, Tz, Rx, Ry, Rz, BoneLength
MASTER 0.000000 0.000000 0.000000 -90.000000 0.000000 0.000000 10.000000 
root 0.000000 0.000000 0.000000 0.000000 0.000000 0.000000 10.000000 
chest 0.000000 0.000000 0.000000 0.000000 0.000000 0.000000 10.000000 
L_mid_tent01 0.000000 0.000000 0.000000 0.000000 0.000000 0.000000 10.000000 
R_mid_tent01 0.000000 0.000000 0.000000 0.000000 0.000000 0.000000 10.000000 
spine01 0.000000 0.000000 0.000000 0.000000 0.000000 0.000000 10.000000 
Bip01_Neck 0.000000 0.000000 0.000000 0.000000 0.000000 0.000000 10.000000 
L_humerus 0.000000 0.000000 0.000000 0.000000 0.000000 0.000000 10.000000 
R_humerus 0.000000 0.000000 0.000000 0.000000 0.000000 0.000000 10.000000 
weapon_bone 0.000000 0.000000 0.000000 0.000000 0.000000 0.000000 10.000000 
Bip01_Head 0.000000 0.000000 0.000000 0.000000 0.000000 0.000000 10.000000 
eye_left_bone 0.000000 0.000000 0.000000 0.000000 0.000000 0.000000 10.000000 
eye_right_bone 0.000000 0.000000 0.000000 0.000000 0.000000 0.000000 10.000000 
L_forearm 0.000000 0.000000 0.000000 0.000000 0.000000 0.000000 10.000000 
L_front_hand 0.000000 0.000000 0.000000 0.000000 0.000000 0.000000 10.000000 
L_weapon_bone 0.000000 0.000000 0.000000 0.000000 0.000000 0.000000 10.000000 
L_front_hand01_01 0.000000 0.000000 0.000000 0.000000 0.000000 0.000000 10.000000 
L_front_hand02_01 0.000000 0.000000 0.000000 0.000000 0.000000 0.000000 10.000000 
L_front_hand03_01 0.000000 0.000000 0.000000 0.000000 0.000000 0.000000 10.000000 
L_front_hand01_02 0.000000 0.000000 0.000000 0.000000 0.000000 0.000000 10.000000 
L_front_hand02_02 0.000000 0.000000 0.000000 0.000000 0.000000 0.000000 10.000000 
L_front_hand03_02 0.000000 0.000000 0.000000 0.000000 0.000000 0.000000 10.000000 
R_forearm 0.000000 0.000000 0.000000 0.000000 0.000000 0.000000 10.000000 
R_front_hand 0.000000 0.000000 0.000000 0.000000 0.000000 0.000000 10.000000 
R_weapon_bone 0.000000 0.000000 0.000000 0.000000 0.000000 0.000000 10.000000 
R_front_hand01_01 0.000000 0.000000 0.000000 0.000000 0.000000 0.000000 10.000000 
R_front_hand02_01 0.000000 0.000000 0.000000 0.000000 0.000000 0.000000 10.000000 
R_front_hand03_01 0.000000 0.000000 0.000000 0.000000 0.000000 0.000000 10.000000 
R_front_hand01_02 0.000000 0.000000 0.000000 0.000000 0.000000 0.000000 10.000000 
R_front_hand02_02 0.000000 0.000000 0.000000 0.000000 0.000000 0.000000 10.000000 
R_front_hand03_02 0.000000 0.000000 0.000000 0.000000 0.000000 0.000000 10.000000 
null_rope01_connect 0.000000 0.000000 0.000000 0.000000 0.000000 0.000000 10.000000 
Rope1_Seg01 0.000000 0.000000 0.000000 0.000000 0.000000 0.000000 10.000000 
Rope1_Seg02 0.000000 0.000000 0.000000 0.000000 0.000000 0.000000 10.000000 
Rope1_Seg03 0.000000 0.000000 0.000000 0.000000 0.000000 0.000000 10.000000 
Rope1_Seg04 0.000000 0.000000 0.000000 0.000000 0.000000 0.000000 10.000000 
Rope1_Seg05 0.000000 0.000000 0.000000 0.000000 0.000000 0.000000 10.000000 
Rope1_Seg06 0.000000 0.000000 0.000000 0.000000 0.000000 0.000000 10.000000 
Rope1_Seg07 0.000000 0.000000 0.000000 0.000000 0.000000 0.000000 10.000000 
Rope1_Seg09 0.000000 0.000000 0.000000 0.000000 0.000000 0.000000 10.000000 
L_mid_hand01 0.000000 0.000000 0.000000 0.000000 0.000000 0.000000 10.000000 
L_mid_hand02 0.000000 0.000000 0.000000 0.000000 0.000000 0.000000 10.000000 
L_mid_hand03 0.000000 0.000000 0.000000 0.000000 0.000000 0.000000 10.000000 
null_rope02_connect 0.000000 0.000000 0.000000 0.000000 0.000000 0.000000 10.000000 
Rope2_Seg01 0.000000 0.000000 0.000000 0.000000 0.000000 0.000000 10.000000 
Rope2_Seg02 0.000000 0.000000 0.000000 0.000000 0.000000 0.000000 10.000000 
Rope2_Seg03 0.000000 0.000000 0.000000 0.000000 0.000000 0.000000 10.000000 
Rope2_Seg04 0.000000 0.000000 0.000000 0.000000 0.000000 0.000000 10.000000 
Rope2_Seg05 0.000000 0.000000 0.000000 0.000000 0.000000 0.000000 10.000000 
Rope2_Seg06 0.000000 0.000000 0.000000 0.000000 0.000000 0.000000 10.000000 
Rope2_Seg07 0.000000 0.000000 0.000000 0.000000 0.000000 0.000000 10.000000 
Rope2_Seg09 0.000000 0.000000 0.000000 0.000000 0.000000 0.000000 10.000000 
R_mid_hand01 0.000000 0.000000 0.000000 0.000000 0.000000 0.000000 10.000000 
R_mid_hand02 0.000000 0.000000 0.000000 0.000000 0.000000 0.000000 10.000000 
R_mid_hand03 0.000000 0.000000 0.000000 0.000000 0.000000 0.000000 10.000000 
spine02 0.000000 0.000000 0.000000 0.000000 0.000000 0.000000 10.000000 
spine03 0.000000 0.000000 0.000000 0.000000 0.000000 0.000000 10.000000 
pelvis 0.000000 0.000000 0.000000 0.000000 0.000000 0.000000 10.000000 
null_rope03_connect 0.000000 0.000000 0.000000 0.000000 0.000000 0.000000 10.000000 
null_rope04_connect 0.000000 0.000000 0.000000 0.000000 0.000000 0.000000 10.000000 
Rope3_Seg01 0.000000 0.000000 0.000000 0.000000 0.000000 0.000000 10.000000 
Rope3_Seg02 0.000000 0.000000 0.000000 0.000000 0.000000 0.000000 10.000000 
Rope3_Seg03 0.000000 0.000000 0.000000 0.000000 0.000000 0.000000 10.000000 
Rope3_Seg04 0.000000 0.000000 0.000000 0.000000 0.000000 0.000000 10.000000 
Rope3_Seg05 0.000000 0.000000 0.000000 0.000000 0.000000 0.000000 10.000000 
Rope3_Seg06 0.000000 0.000000 0.000000 0.000000 0.000000 0.000000 10.000000 
Rope3_Seg07 0.000000 0.000000 0.000000 0.000000 0.000000 0.000000 10.000000 
Rope3_Seg08 0.000000 0.000000 0.000000 0.000000 0.000000 0.000000 10.000000 
Rope3_Seg09 0.000000 0.000000 0.000000 0.000000 0.000000 0.000000 10.000000 
R_rear_hand01 0.000000 0.000000 0.000000 0.000000 0.000000 0.000000 10.000000 
R_rear_hand02 0.000000 0.000000 0.000000 0.000000 0.000000 0.000000 10.000000 
R_rear_hand03 0.000000 0.000000 0.000000 0.000000 0.000000 0.000000 10.000000 
Rope4_Seg01 0.000000 0.000000 0.000000 0.000000 0.000000 0.000000 10.000000 
Rope4_Seg02 0.000000 0.000000 0.000000 0.000000 0.000000 0.000000 10.000000 
Rope4_Seg03 0.000000 0.000000 0.000000 0.000000 0.000000 0.000000 10.000000 
Rope4_Seg04 0.000000 0.000000 0.000000 0.000000 0.000000 0.000000 10.000000 
Rope4_Seg05 0.000000 0.000000 0.000000 0.000000 0.000000 0.000000 10.000000 
Rope4_Seg06 0.000000 0.000000 0.000000 0.000000 0.000000 0.000000 10.000000 
Rope4_Seg07 0.000000 0.000000 0.000000 0.000000 0.000000 0.000000 10.000000 
Rope4_Seg08 0.000000 0.000000 0.000000 0.000000 0.000000 0.000000 10.000000 
Rope4_Seg09 0.000000 0.000000 0.000000 0.000000 0.000000 0.000000 10.000000 
L_rear_hand01 0.000000 0.000000 0.000000 0.000000 0.000000 0.000000 10.000000 
L_rear_hand02 0.000000 0.000000 0.000000 0.000000 0.000000 0.000000 10.000000 
L_rear_hand03 0.000000 0.000000 0.000000 0.000000 0.000000 0.000000 10.000000 
#Beginning of Data. Separated by tabs
#Fr	Tx	Ty	Tz	Rx	Ry	Rz	SF
[MASTER]
30 0.000000 0.000000 0.000000 0.001660 0.001660 0.001660 0.000000
31 0.000000 0.000000 0.000000 0.001660 0.001660 0.001660 0.000000
[root]
30 8.069437 -62.822109 687.363281 -86.601524 0.413544 -91.000854 690.275269
31 21.403313 -62.822105 714.979065 -86.919182 2.007472 -91.149452 718.052795
[chest]
30 -84.512718 -34.090424 -0.000000 4.206926 10.508235 165.002167 91.129341
31 -84.512695 -34.090500 -0.000005 4.206926 10.508235 165.002167 91.129349
[L_mid_tent01]
30 23.228706 24.509943 -223.760971 78.356972 33.597412 107.917305 226.294693
31 23.228701 24.509943 -223.761017 78.356979 33.597420 107.917328 226.294739
[R_mid_tent01]
30 23.228794 24.509907 226.238495 -52.763554 -30.341368 111.589340 228.744751
31 23.228794 24.509907 226.238495 -52.763561 -30.341372 111.589348 228.744751
[spine01]
30 -0.361383 -0.195265 0.000000 -0.000001 -0.000007 22.052340 0.410763
31 -0.361383 -0.195265 0.000000 -0.000001 -0.000007 22.052340 0.410763
[Bip01_Neck]
30 165.484543 71.581718 0.000119 175.896118 1.177290 24.871183 180.302734
31 165.484543 71.581718 0.000119 175.896118 1.177290 24.871187 180.302734
[L_humerus]
30 -13.983130 -135.272980 -120.471481 -24.470154 69.810738 60.132500 181.680161
31 -13.983130 -135.272980 -120.471481 -30.387136 68.031548 53.048740 181.680161
[R_humerus]
30 -13.983309 -135.273102 125.287651 -5.106703 -52.399509 95.022179 184.909012
31 -13.983309 -135.273102 125.287651 -4.926571 -50.011368 92.068398 184.909012
[weapon_bone]
30 235.964890 -300.705902 0.000000 0.000000 -89.951546 -128.212341 382.234833
31 235.964890 -300.705902 0.000000 0.000000 -89.951546 -128.212341 382.234833
[Bip01_Head]
30 198.395874 106.853561 20.414101 -9.873048 -6.168754 -32.989986 226.263885
31 198.395798 106.853638 20.414095 -9.873050 -6.168755 -32.989990 226.263855
[eye_left_bone]
30 -24.626970 125.451866 -64.772606 0.000000 -90.000000 -99.840431 143.318359
31 -24.626970 125.451866 -64.772606 0.000000 -90.000000 -99.840431 143.318359
[eye_right_bone]
30 -24.626970 125.451866 64.327362 0.000000 -89.960434 80.159386 143.117676
31 -24.626970 125.451866 64.327362 0.000000 -90.000000 80.159393 143.117676
[L_forearm]
30 322.776093 0.000000 -0.000119 0.000032 -0.002347 -91.556183 322.776093
31 322.776093 0.000000 -0.000119 0.000001 -0.002347 -90.041969 322.776093
[L_front_hand]
30 241.149185 -0.042021 -3.300071 85.178131 -1.996285 -19.788830 241.171753
31 241.149185 -0.042021 -3.300071 85.178139 -1.996286 -19.788832 241.171753
[L_weapon_bone]
30 156.183838 0.000000 0.000000 0.000014 0.000007 0.000001 156.183838
31 156.183838 0.000000 0.000000 0.000014 0.000007 0.000001 156.183838
[L_front_hand01_01]
30 86.095154 20.947098 -0.655860 -0.366594 -0.477154 75.385574 88.609184
31 86.095154 20.947098 -0.655860 -0.366594 -0.477154 75.385582 88.609184
[L_front_hand02_01]
30 86.935165 -11.437475 24.513514 154.399796 -59.883835 -61.369587 91.046425
31 86.935165 -11.437475 24.513514 154.399826 -59.883846 -61.369614 91.046425
[L_front_hand03_01]
30 86.637497 -14.123976 -20.424902 -153.913849 58.118122 -62.702866 90.126129
31 86.637497 -14.123976 -20.424902 -153.913864 58.118141 -62.702885 90.126129
[L_front_hand01_02]
30 71.020905 -0.000179 0.000030 0.000305 -0.002327 -104.952240 71.020905
31 71.020905 -0.000179 0.000030 0.000334 -0.002323 -106.379700 71.020905
[L_front_hand02_02]
30 71.020927 -0.000119 0.000060 0.000305 -0.002327 -104.952240 71.020927
31 71.020927 -0.000119 0.000060 0.000334 -0.002323 -106.379700 71.020927
[L_front_hand03_02]
30 71.020905 -0.000060 0.000060 0.000305 -0.002327 -104.952240 71.020905
31 71.020905 -0.000060 0.000060 0.000334 -0.002323 -106.379700 71.020905
[R_forearm]
30 322.776428 -0.000060 0.000030 0.212312 -0.025713 -84.306099 322.776428
31 322.776428 -0.000060 0.000030 0.212263 -0.026108 -84.092819 322.776428
[R_front_hand]
30 238.847015 -0.006795 2.210259 101.933243 1.237563 -32.936131 238.857239
31 238.847015 -0.006795 2.210259 101.933258 1.237563 -32.936134 238.857239
[R_weapon_bone]
30 155.664093 0.002503 -0.000030 0.003487 0.001180 -90.988930 155.664078
31 155.664093 0.002503 -0.000030 0.003487 0.001180 -90.988930 155.664078
[R_front_hand01_01]
30 87.624611 14.231146 22.918642 -154.633499 -59.950619 61.746044 91.683487
31 87.624611 14.231146 22.918642 -154.633499 -59.950634 61.746063 91.683487
[R_front_hand02_01]
30 89.356956 14.367283 -19.491137 154.595840 58.306175 63.741730 92.579636
31 89.356956 14.367283 -19.491137 154.595840 58.306190 63.741753 92.579636
[R_front_hand03_01]
30 87.286232 -22.307278 -0.143439 0.162155 -0.423168 -75.767921 90.091743
31 87.286232 -22.307278 -0.143439 0.162155 -0.423168 -75.767921 90.091743
[R_front_hand01_02]
30 71.020905 0.000060 0.000119 0.002327 -0.000305 104.948074 71.020905
31 71.020905 0.000060 0.000119 0.002323 -0.000334 106.381729 71.020905
[R_front_hand02_02]
30 71.020844 -0.000030 -0.000119 0.002327 -0.000305 104.948074 71.020836
31 71.020844 -0.000030 -0.000119 0.002323 -0.000334 106.381729 71.020836
[R_front_hand03_02]
30 71.020905 0.000000 0.000030 0.002327 -0.000305 104.948074 71.020905
31 71.020905 0.000000 0.000030 0.002323 -0.000334 106.381729 71.020905
[null_rope01_connect]
30 328.732483 0.000000 -0.000238 -114.190933 -10.156329 120.575104 328.732483
31 328.732483 0.000000 -0.000238 -115.827644 -9.909210 120.778076 328.732483
[Rope1_Seg01]
30 -0.000020 0.000001 0.000005 130.132202 -33.309372 122.421921 0.000020
31 -0.000019 0.000000 0.000000 126.921173 -29.945408 124.670731 0.000019
[Rope1_Seg02]
30 139.999863 -0.000179 0.000000 -2.808813 -2.469647 -3.486298 139.999863
31 139.999863 -0.000179 0.000000 -2.691333 -2.542527 -3.784132 139.999863
[Rope1_Seg03]
30 139.999924 0.000060 -0.000060 -4.341915 -3.921329 -6.186641 139.999924
31 139.999924 0.000060 -0.000060 -4.104561 -4.047035 -6.710839 139.999924
[Rope1_Seg04]
30 139.999924 -0.000060 -0.000119 -7.072250 -7.182227 -14.590831 139.999924
31 139.999924 -0.000060 -0.000119 -6.294047 -7.246751 -15.647661 139.999924
[Rope1_Seg05]
30 139.999832 0.000119 -0.000060 -4.267455 -10.944439 -37.737110 139.999832
31 139.999832 0.000119 -0.000060 -2.613931 -10.878876 -36.105595 139.999832
[Rope1_Seg06]
30 139.999954 0.000119 -0.000060 5.843896 -11.714094 -30.593819 139.999954
31 139.999954 0.000119 -0.000060 6.173969 -11.820244 -28.902203 139.999954
[Rope1_Seg07]
30 139.999985 0.000060 0.000000 5.167014 -7.969631 -14.713373 139.999985
31 139.999985 0.000060 0.000000 4.912275 -7.299448 -14.044983 139.999985
[Rope1_Seg09]
30 121.602913 0.000119 -0.000089 -89.793175 -1.359789 0.847147 121.602913
31 121.602913 0.000119 -0.000089 -89.793175 -1.359789 0.847147 121.602913
[L_mid_hand01]
30 103.859421 1.038730 8.195221 106.243362 -27.610722 -8.221345 104.187431
31 103.859421 1.038730 8.195221 106.243385 -27.610731 -8.221347 104.187431
[L_mid_hand02]
30 105.572853 -4.139662 -10.864139 -140.972244 23.403242 -25.511135 106.211075
31 105.572853 -4.139662 -10.864139 -140.972244 23.403250 -25.511139 106.211075
[L_mid_hand03]
30 104.641464 17.579376 -3.913581 -16.709753 8.664801 30.543972 106.179977
31 104.641464 17.579376 -3.913581 -16.709755 8.664802 30.543982 106.179977
[null_rope02_connect]
30 328.732849 0.000179 -0.000119 45.148354 -29.858023 -50.004429 328.732849
31 328.732849 0.000179 -0.000119 43.604916 -30.161522 -50.117977 328.732849
[Rope2_Seg01]
30 -0.000071 -0.000134 0.000000 -53.900734 -26.406572 60.540012 0.000152
31 -0.000076 -0.000143 0.000000 -57.878853 -33.035706 63.728752 0.000162
[Rope2_Seg02]
30 139.999741 -0.000060 -0.000119 3.931079 5.055117 9.001093 139.999756
31 139.999741 -0.000060 -0.000119 6.648838 7.630260 12.348163 139.999756
[Rope2_Seg03]
30 140.000107 0.000030 0.000000 3.792083 6.120066 8.984249 140.000107
31 140.000107 0.000030 0.000000 6.884409 11.494219 13.780216 140.000107
[Rope2_Seg04]
30 139.999802 0.000000 -0.000060 3.391273 6.788111 8.949745 139.999802
31 139.999802 0.000000 -0.000060 4.349827 11.508622 11.670220 139.999802
[Rope2_Seg05]
30 139.999985 -0.000060 0.000119 14.362594 24.040291 38.350094 139.999985
31 139.999985 -0.000060 0.000119 8.124313 20.584230 29.943184 139.999985
[Rope2_Seg06]
30 139.999893 -0.000030 -0.000119 3.504729 22.451021 27.806131 139.999893
31 139.999893 -0.000030 -0.000119 2.136796 19.633184 25.970119 139.999893
[Rope2_Seg07]
30 139.999893 0.000060 -0.000060 -1.432098 7.275864 8.860447 139.999893
31 139.999893 0.000060 -0.000060 -1.456050 7.677520 10.064675 139.999893
[Rope2_Seg09]
30 121.338966 0.000089 -0.000060 33.793236 -1.359788 -0.847141 121.338966
31 121.338966 0.000089 -0.000060 33.793236 -1.359788 -0.847141 121.338966
[R_mid_hand01]
30 104.680779 11.144459 -10.335981 -42.750736 22.953909 25.606682 105.778534
31 104.680779 11.144459 -10.335981 -42.750740 22.953913 25.606688 105.778534
[R_mid_hand02]
30 104.070427 2.443552 8.231699 73.485046 -29.224543 8.771014 104.424065
31 104.070427 2.443552 8.231699 73.485062 -29.224550 8.771015 104.424065
[R_mid_hand03]
30 106.028137 -11.221827 -5.996406 -167.274673 9.466213 -33.359016 106.788818
31 106.028137 -11.221827 -5.996406 -167.274673 9.466213 -33.359016 106.788818
[spine02]
30 129.756927 0.001550 0.000119 -0.002328 -4.059390 -7.853185 129.756927
31 129.756927 0.001550 0.000119 -0.002328 -4.059390 -7.853185 129.756927
[spine03]
30 79.115578 -0.000051 -0.000001 0.001132 7.597442 -9.874059 79.115578
31 79.115578 0.000008 0.000001 0.001132 7.597443 -9.874061 79.115578
[pelvis]
30 169.435242 0.051022 0.000000 0.001658 3.016138 -4.323351 169.435257
31 169.435242 0.051022 0.000000 0.001658 3.016139 -4.323353 169.435257
[null_rope03_connect]
30 -1.257226 -2.466202 137.391083 -63.933643 -81.443604 153.299255 137.418976
31 -1.257226 -2.466202 137.391083 -67.642433 -81.434021 155.430283 137.418976
[null_rope04_connect]
30 -1.259640 -2.480268 -137.844437 -63.933643 -81.443604 153.299255 137.872513
31 -1.259640 -2.480268 -137.844437 -67.642433 -81.434021 155.430283 137.872513
[Rope3_Seg01]
30 0.000000 0.000000 0.000000 -136.402145 -19.072290 -60.043232 0.000000
31 0.000000 0.000000 0.000000 -134.907013 -16.346184 -62.182076 0.000000
[Rope3_Seg02]
30 139.999924 -0.000119 0.000060 4.024694 -9.528955 9.131871 139.999924
31 139.999924 -0.000119 0.000060 3.451302 -9.725710 9.133719 139.999924
[Rope3_Seg03]
30 139.999924 -0.000119 0.000119 3.450051 -10.742540 12.225976 139.999924
31 139.999924 -0.000119 0.000119 2.813603 -10.661990 11.620539 139.999924
[Rope3_Seg04]
30 139.999924 0.000119 0.000000 1.906045 -10.118582 12.576334 139.999924
31 139.999924 0.000119 0.000000 1.559909 -9.849603 10.995215 139.999924
[Rope3_Seg05]
30 139.999924 -0.000238 0.000060 0.786538 -6.036412 9.028088 139.999924
31 139.999924 -0.000238 0.000060 0.734038 -5.935009 8.271157 139.999924
[Rope3_Seg06]
30 139.999893 -0.000119 -0.000060 -0.036475 -6.049790 12.080542 139.999893
31 139.999893 -0.000119 -0.000060 -0.095987 -6.235059 12.538236 139.999893
[Rope3_Seg07]
30 139.999771 0.000060 -0.000119 -5.385553 -10.571309 23.963892 139.999771
31 139.999771 0.000060 -0.000119 -5.732759 -10.715405 24.558500 139.999771
[Rope3_Seg08]
30 139.999985 -0.000060 0.000000 -8.067671 -10.002188 18.502710 139.999985
31 139.999985 -0.000060 0.000000 -8.147074 -9.986164 18.212049 139.999985
[Rope3_Seg09]
30 90.185997 -0.000179 -0.000060 89.793228 -1.359877 -0.847183 90.185997
31 90.185997 -0.000179 -0.000060 89.793228 -1.359877 -0.847183 90.185997
[R_rear_hand01]
30 103.366196 -6.073594 -10.757982 -161.551193 16.666374 -30.088671 104.101845
31 103.366196 -6.073594 -10.757982 -161.551193 16.666374 -30.088671 104.101845
[R_rear_hand02]
30 100.509819 12.039542 -7.992327 -34.280552 19.289745 28.875523 101.543350
31 100.509819 12.039542 -7.992327 -34.280552 19.289745 28.875523 101.543350
[R_rear_hand03]
30 101.539970 5.215704 5.435467 83.366440 -30.933914 7.284830 101.819031
31 101.539970 5.215704 5.435467 83.366440 -30.933914 7.284830 101.819031
[Rope4_Seg01]
30 -0.000027 -0.000041 -0.000111 65.928185 -32.825424 -134.599091 0.000121
31 -0.000029 -0.000038 -0.000114 60.512859 -27.372227 -131.227020 0.000124
[Rope4_Seg02]
30 139.999985 0.000060 0.000119 -9.585974 7.279611 -11.072346 139.999985
31 139.999985 0.000060 0.000119 -9.036195 7.705081 -11.483843 139.999985
[Rope4_Seg03]
30 139.999924 0.000000 -0.000238 -13.148812 14.133162 -15.938016 139.999924
31 139.999924 0.000000 -0.000238 -11.017552 13.127377 -14.764026 139.999924
[Rope4_Seg04]
30 139.999985 0.000000 0.000119 -10.862052 21.725418 -16.449900 139.999985
31 139.999985 0.000000 0.000119 -8.550331 17.392622 -14.163503 139.999985
[Rope4_Seg05]
30 139.999802 -0.000060 -0.000119 -2.298582 13.700101 -7.543445 139.999802
31 139.999802 -0.000060 -0.000119 -2.408417 11.191518 -7.057824 139.999802
[Rope4_Seg06]
30 139.999924 0.000000 0.000060 -0.212936 9.206402 -5.684052 139.999924
31 139.999924 0.000000 0.000060 -0.848393 10.028604 -6.112791 139.999924
[Rope4_Seg07]
30 139.999802 0.000000 0.000000 1.003767 15.068684 -10.843053 139.999802
31 139.999802 0.000000 0.000000 0.336091 18.541302 -11.705240 139.999802
[Rope4_Seg08]
30 139.999924 0.000000 0.000119 2.204370 15.970419 -11.854774 139.999924
31 139.999924 0.000000 0.000119 2.391013 17.147614 -11.625952 139.999924
[Rope4_Seg09]
30 90.185791 0.000060 0.000060 -135.617828 2.228885 0.850567 90.185791
31 90.185791 0.000060 0.000060 -135.617828 2.228885 0.850567 90.185791
[L_rear_hand01]
30 101.696655 -8.392275 -7.654577 -35.095459 -17.602428 153.690384 102.329041
31 101.696655 -8.392275 -7.654577 -35.095722 -17.602289 153.690384 102.329041
[L_rear_hand02]
30 102.726799 -1.568258 5.773216 83.558395 27.990173 173.100922 102.900848
31 102.726799 -1.568258 5.773216 83.558357 27.990019 173.100769 102.900848
[L_rear_hand03]
30 104.552910 9.721220 -10.420293 -160.738800 -15.709496 -152.832687 105.519653
31 104.552910 9.721220 -10.420293 -160.738785 -15.709461 -152.832901 105.519653
